<svg width="61" height="90" viewBox="0 0 61 90" fill="none" xmlns="http://www.w3.org/2000/svg">
<g clip-path="url(#clip0_40_37)">
<path d="M49.8935 85.8561C49.8935 84.0285 48.8693 82.8034 47.2158 82.8034C45.5622 82.8034 44.538 83.9682 44.538 85.8561C44.538 87.7439 45.6225 88.9087 47.2158 88.9087C48.809 88.9087 49.8935 87.7573 49.8935 85.8561ZM43.0987 85.8561C43.1092 85.0497 43.3579 84.2645 43.8134 83.5991C44.269 82.9337 44.911 82.4178 45.6589 82.1162C46.4068 81.8146 47.2271 81.7408 48.0168 81.9041C48.8065 82.0673 49.5303 82.4604 50.0973 83.0338C50.6643 83.6073 51.0491 84.3355 51.2034 85.127C51.3576 85.9186 51.2745 86.738 50.9645 87.4824C50.6544 88.2268 50.1312 88.863 49.4606 89.3109C48.7901 89.7588 48.0021 89.9985 47.1957 89.9999C46.648 90.021 46.1019 89.9279 45.5921 89.7265C45.0824 89.5251 44.6201 89.2198 44.2348 88.8301C43.8494 88.4403 43.5494 87.9746 43.3538 87.4626C43.1582 86.9506 43.0713 86.4035 43.0987 85.8561Z" fill="#F1EDD5"/>
<path d="M55.5639 88.3265C56.1009 88.6875 56.7311 88.8852 57.3781 88.8955C58.1413 88.8955 58.8442 88.6144 58.8442 87.8244C58.8442 86.1173 55.2761 86.3249 55.2761 83.8814C55.2761 82.6898 56.22 81.6923 57.8668 81.6923C58.5321 81.6808 59.1913 81.8205 59.7948 82.1007V83.2655C59.2097 82.9596 58.5605 82.7967 57.9003 82.7902C57.2777 82.7902 56.6685 83.0312 56.6685 83.7609C56.6685 85.3542 60.2299 85.1734 60.2299 87.7173C60.2299 89.1298 59.045 89.9867 57.4049 89.9867C56.5675 90.0083 55.7434 89.7749 55.0417 89.3173L55.5639 88.3265Z" fill="#F1EDD5"/>
<path d="M50.9379 55.1555C50.3153 55.6911 49.512 56.3003 48.8827 56.8358C48.1396 55.3028 47.651 45.3481 47.497 34.3693C47.343 23.3904 47.1556 10.5505 47.1556 8.44173L32.0596 23.1025V3.9029H34.5834C36.7256 3.9029 37.4888 3.9029 41.0034 3.94307C49.0367 3.97654 45.1673 6.85515 45.2945 7.20326C45.4953 7.74551 45.964 7.3974 46.2384 7.08276C47.4014 5.85195 48.471 4.5362 49.4384 3.14644C49.7597 2.65105 51.9488 0.0402142 43.246 4.75924e-05C34.5432 -0.040119 24.2137 0.0669958 20.9 0.113857C18.9251 0.113857 16.5687 0.19419 14.7009 0.9038C13.7302 1.27199 12.4181 3.11296 11.2801 4.61921C10.7376 5.29956 10.2581 6.02778 9.84747 6.7949C9.84102 6.8073 9.83765 6.82108 9.83765 6.83506C9.83765 6.84905 9.84102 6.86283 9.84747 6.87524C9.84747 6.93548 9.96127 6.87524 10.0081 6.87524C10.6662 6.16256 11.3683 5.4918 12.1102 4.8669C13.3961 4.38308 14.7535 4.11614 16.1269 4.07696C17.7134 3.97654 19.3201 4.00332 20.9134 3.98324C23.6447 3.93638 26.3827 3.92968 29.1141 3.93638C28.6832 4.34953 28.2868 4.79733 27.9291 5.27527C27.822 5.48949 27.7953 12.1505 27.802 21.6565L32.0663 26.4029V25.392C36.2302 21.1545 40.1599 17.024 43.1657 14.0115C43.1657 18.2357 43.0452 40.1667 43.3732 46.2251C43.7615 53.348 44.7121 59.8416 45.4753 59.9554H45.5958C46.3388 59.9554 47.825 59.0918 48.4208 58.6165C49.4838 57.7204 50.389 56.6523 51.0986 55.4567C51.0986 55.4567 51.0986 55.1555 50.9714 55.1689" fill="#C5B675"/>
<path d="M15.4977 8.74976H15.4576H15.2166C15.2166 8.74976 12.6995 11.4275 12.5857 11.5748C12.8066 16.0199 13.3756 28.5519 13.3756 35.9827C13.3756 45.0537 13.4426 56.1397 12.6727 56.9028C11.9028 57.666 9.16479 58.6367 9.16479 59.1856C9.16479 59.7346 9.6602 60.0224 10.7112 60.0224C11.7623 60.0224 15.9663 56.1397 15.9663 51.1523C15.9663 49.0436 16.2609 40.6421 16.2475 32.4079C16.2475 26.3829 16.0868 19.809 15.9864 15.3639C18.6307 18.5772 22.5001 23.2566 26.2021 27.6348L25.7603 27.9896C18.9721 33.2447 14.7747 35.7685 26.008 48.2068L27.2264 49.5457V43.1658C19.7755 34.4631 22.5403 32.5083 26.8314 28.3645C28.418 30.2255 29.951 32.0129 31.3301 33.5861C39.6312 43.0387 36.5718 44.8595 32.0665 49.2712V35.3668L27.8222 30.8615C27.8222 35.8756 27.9159 55.8585 27.9226 57.0033C26.8303 57.3728 25.8075 57.9226 24.8967 58.63C24.7963 58.7371 24.7227 58.8375 24.8967 58.8375C25.3896 58.4644 26.0004 58.2814 26.6172 58.3221C27.9561 58.3221 30.1251 59.0852 31.6313 59.0852C33.1376 59.0852 35.5944 57.6258 35.5944 57.4183C35.5944 57.2108 35.1727 57.5924 34.7175 57.5924C33.8041 57.5104 32.9046 57.3148 32.0397 57.0099V50.3958L33.3384 49.3582C40.1266 44.1031 44.3307 41.5726 33.0907 29.141C26.6641 22.0248 18.1487 11.6953 15.4777 8.74976" fill="#C5B675"/>
<path d="M50.9379 55.1555C50.3153 55.6911 49.512 56.3003 48.8827 56.8358C48.1396 55.3028 47.651 45.3481 47.497 34.3693C47.343 23.3904 47.1556 10.5505 47.1556 8.44173L32.0596 23.1025V3.9029H34.5834C36.7256 3.9029 37.4888 3.9029 41.0034 3.94307C49.0367 3.97654 45.1673 6.85515 45.2945 7.20326C45.4953 7.74551 45.964 7.3974 46.2384 7.08276C47.4014 5.85195 48.471 4.5362 49.4384 3.14644C49.7597 2.65105 51.9488 0.0402142 43.246 4.75924e-05C34.5432 -0.040119 24.2137 0.0669958 20.9 0.113857C18.9251 0.113857 16.5687 0.19419 14.7009 0.9038C13.7302 1.27199 12.4181 3.11296 11.2801 4.61921C10.7376 5.29956 10.2581 6.02778 9.84747 6.7949C9.84102 6.8073 9.83765 6.82108 9.83765 6.83506C9.83765 6.84905 9.84102 6.86283 9.84747 6.87524C9.84747 6.93548 9.96127 6.87524 10.0081 6.87524C10.6662 6.16256 11.3683 5.4918 12.1102 4.8669C13.3961 4.38308 14.7535 4.11614 16.1269 4.07696C17.7134 3.97654 19.3201 4.00332 20.9134 3.98324C23.6447 3.93638 26.3827 3.92968 29.1141 3.93638C28.6832 4.34953 28.2868 4.79733 27.9291 5.27527C27.822 5.48949 27.7953 12.1505 27.802 21.6565L32.0663 26.4029V25.392C36.2302 21.1545 40.1599 17.024 43.1657 14.0115C43.1657 18.2357 43.0452 40.1667 43.3732 46.2251C43.7615 53.348 44.7121 59.8416 45.4753 59.9554H45.5958C46.3388 59.9554 47.825 59.0918 48.4208 58.6165C49.4838 57.7204 50.389 56.6523 51.0986 55.4567C51.0986 55.4567 51.0986 55.1555 50.9714 55.1689" fill="#F1EDD5"/>
<path d="M15.4977 8.74976H15.4576H15.2166C15.2166 8.74976 12.6995 11.4275 12.5857 11.5748C12.8066 16.0199 13.3756 28.5519 13.3756 35.9827C13.3756 45.0537 13.4426 56.1397 12.6727 56.9028C11.9028 57.666 9.16479 58.6367 9.16479 59.1856C9.16479 59.7346 9.6602 60.0224 10.7112 60.0224C11.7623 60.0224 15.9663 56.1397 15.9663 51.1523C15.9663 49.0436 16.2609 40.6421 16.2475 32.4079C16.2475 26.3829 16.0868 19.809 15.9864 15.3639C18.6307 18.5772 22.5001 23.2566 26.2021 27.6348L25.7603 27.9896C18.9721 33.2447 14.7747 35.7685 26.008 48.2068L27.2264 49.5457V43.1658C19.7755 34.4631 22.5403 32.5083 26.8314 28.3645C28.418 30.2255 29.951 32.0129 31.3301 33.5861C39.6312 43.0387 36.5718 44.8595 32.0665 49.2712V35.3668L27.8222 30.8615C27.8222 35.8756 27.9159 55.8585 27.9226 57.0033C26.8303 57.3728 25.8075 57.9226 24.8967 58.63C24.7963 58.7371 24.7227 58.8375 24.8967 58.8375C25.3896 58.4644 26.0004 58.2814 26.6172 58.3221C27.9561 58.3221 30.1251 59.0852 31.6313 59.0852C33.1376 59.0852 35.5944 57.6258 35.5944 57.4183C35.5944 57.2108 35.1727 57.5924 34.7175 57.5924C33.8041 57.5104 32.9046 57.3148 32.0397 57.0099V50.3958L33.3384 49.3582C40.1266 44.1031 44.3307 41.5726 33.0907 29.141C26.6641 22.0248 18.1487 11.6953 15.4777 8.74976" fill="#F1EDD5"/>
<path d="M38.9482 81.7793H37.6428V89.8729H38.9482V81.7793Z" fill="#F1EDD5"/>
<path d="M2.37652 82.8705H0V81.7793H6.27938L5.90449 82.8705H3.68194V89.8729H2.37652V82.8705Z" fill="#F1EDD5"/>
<path d="M9.81396 81.7793H14.1587L13.7838 82.8705H11.1194V85.2068H13.7704V86.3047H11.1194V88.7817H14.1921V89.8729H9.81396V81.7793Z" fill="#F1EDD5"/>
<path d="M41.5591 67.0315H40.2537V75.1251H41.5591V67.0315Z" fill="#F1EDD5"/>
<path d="M24.0598 67.0315H22.7544V75.1251H24.0598V67.0315Z" fill="#F1EDD5"/>
<path d="M10.1757 67.0315H11.3673L13.5697 70.2046C13.8643 70.6599 14.0785 70.9678 14.2793 71.2958C14.4601 70.9812 14.681 70.6264 14.9488 70.1578L16.9571 67.0315H18.1688V75.1318H16.8634V70.3519C16.8634 69.9971 16.8634 69.5419 16.8634 69.1871C16.7228 69.4549 16.435 69.8565 16.2877 70.1176L14.5337 72.8356H13.9112L11.9898 70.0574C11.7818 69.7835 11.5939 69.4949 11.4275 69.1938C11.4275 69.5419 11.4275 70.0105 11.4275 70.3252V75.1318H10.0886L10.1757 67.0315Z" fill="#F1EDD5"/>
<path d="M34.5634 75.1317L30.8815 70.3385C30.4731 69.823 30.1652 69.3812 29.8773 68.9996C29.8773 69.3544 29.9175 69.7762 29.9175 70.3385V75.1652H28.5786V67.0649H29.8573L33.4053 71.6707C33.8271 72.213 34.1484 72.6548 34.4095 73.0498C34.4095 72.6213 34.4095 72.1661 34.4095 71.664V67.0649H35.7216V75.1652L34.5634 75.1317Z" fill="#F1EDD5"/>
<path d="M46.2116 73.5987C46.7486 73.9597 47.3788 74.1574 48.0258 74.1677C48.7823 74.1677 49.4919 73.8866 49.4919 73.0966C49.4919 71.3895 45.9237 71.5971 45.9237 69.1536C45.9237 67.962 46.8677 66.9712 48.5145 66.9712C49.1772 66.957 49.8343 67.0944 50.4358 67.3729V68.5444C49.8535 68.2367 49.2065 68.0715 48.548 68.0624C47.9254 68.0624 47.3162 68.3101 47.3162 69.0331C47.3162 70.6264 50.8709 70.4456 50.8709 72.9895C50.8709 74.402 49.6927 75.2589 48.0526 75.2589C47.2156 75.2772 46.3925 75.044 45.6895 74.5895L46.2116 73.5987Z" fill="#F1EDD5"/>
<path d="M20.4114 85.5683C20.7535 85.5775 21.0922 85.4991 21.3955 85.3407C21.5926 85.2223 21.754 85.0528 21.8625 84.85C21.9709 84.6472 22.0224 84.4189 22.0114 84.1892C22.0255 83.9808 21.9839 83.7725 21.891 83.5854C21.7981 83.3984 21.6571 83.2394 21.4825 83.1248C21.1725 82.9123 20.7997 82.8109 20.4248 82.8369H19.7152V85.5683H20.4114ZM18.4031 81.7792H20.4516C21.0666 81.7511 21.6788 81.8777 22.2323 82.1474C22.5874 82.3192 22.8841 82.5917 23.0853 82.931C23.2865 83.2703 23.3833 83.6613 23.3637 84.0553C23.3771 84.5385 23.2242 85.0116 22.9305 85.3955C22.6368 85.7794 22.2202 86.0507 21.7503 86.1641C22.1729 86.524 22.515 86.9687 22.7545 87.4695L24.1603 89.8527H22.654L21.3955 87.7038C21.0005 87.0009 20.7261 86.6528 20.4784 86.6059H19.7085V89.8527H18.4031V81.7792Z" fill="#F1EDD5"/>
<path d="M30.0247 85.5683C30.367 85.5796 30.7062 85.5011 31.0088 85.3407C31.2077 85.2237 31.3708 85.0547 31.4805 84.8517C31.5903 84.6488 31.6424 84.4197 31.6314 84.1892C31.6441 83.9803 31.6012 83.7718 31.5071 83.5848C31.413 83.3978 31.2711 83.2391 31.0958 83.1248C30.7862 82.9114 30.4131 82.8098 30.0381 82.8369H29.3285V85.5683H30.0247ZM28.0164 81.7792H30.0716C30.6844 81.7511 31.2945 81.8778 31.8456 82.1474C32.2007 82.3192 32.4974 82.5917 32.6986 82.931C32.8998 83.2703 32.9966 83.6614 32.9769 84.0553C32.9917 84.5388 32.8392 85.0125 32.5453 85.3967C32.2514 85.7808 31.8341 86.0519 31.3636 86.1641C31.7862 86.524 32.1283 86.9687 32.3677 87.4695L33.7736 89.8527H32.274L31.0356 87.7306C30.6339 87.0277 30.3661 86.6796 30.1117 86.6327H29.3419V89.8795H28.0231L28.0164 81.7792Z" fill="#F1EDD5"/>
</g>
<defs>
<clipPath id="clip0_40_37">
<rect width="60.2298" height="90" fill="white"/>
</clipPath>
</defs>
</svg>
