<svg width="43" height="60" viewBox="0 0 43 60" fill="none" xmlns="http://www.w3.org/2000/svg">
<path d="M41.9379 55.1555C41.3153 55.6911 40.512 56.3003 39.8827 56.8358C39.1396 55.3028 38.651 45.3481 38.497 34.3693C38.343 23.3904 38.1556 10.5505 38.1556 8.44173L23.0596 23.1025V3.9029H25.5834C27.7256 3.9029 28.4888 3.9029 32.0034 3.94307C40.0367 3.97654 36.1673 6.85515 36.2945 7.20326C36.4953 7.74551 36.964 7.3974 37.2384 7.08276C38.4014 5.85195 39.471 4.5362 40.4384 3.14644C40.7597 2.65105 42.9488 0.0402142 34.246 4.75924e-05C25.5432 -0.040119 15.2137 0.0669958 11.9 0.113857C9.92512 0.113857 7.56869 0.19419 5.70094 0.9038C4.73025 1.27199 3.41813 3.11296 2.28007 4.61921C1.73763 5.29956 1.25814 6.02778 0.847473 6.7949C0.841019 6.8073 0.837646 6.82108 0.837646 6.83506C0.837646 6.84905 0.841019 6.86283 0.847473 6.87524C0.847473 6.93548 0.961272 6.87524 1.00813 6.87524C1.6662 6.16256 2.36827 5.4918 3.1102 4.8669C4.39613 4.38308 5.75348 4.11614 7.12686 4.07696C8.71344 3.97654 10.3201 4.00332 11.9134 3.98324C14.6447 3.93638 17.3827 3.92968 20.1141 3.93638C19.6832 4.34953 19.2868 4.79733 18.9291 5.27527C18.822 5.48949 18.7953 12.1505 18.802 21.6565L23.0663 26.4029V25.392C27.2302 21.1545 31.1599 17.024 34.1657 14.0115C34.1657 18.2357 34.0452 40.1667 34.3732 46.2251C34.7615 53.348 35.7121 59.8416 36.4753 59.9554H36.5958C37.3388 59.9554 38.825 59.0918 39.4208 58.6165C40.4838 57.7204 41.389 56.6523 42.0986 55.4567C42.0986 55.4567 42.0986 55.1555 41.9714 55.1689" fill="black"/>
</svg>
